<svg xmlns="http://www.w3.org/2000/svg" xmlns:xlink="http://www.w3.org/1999/xlink" width="500" zoomAndPan="magnify" viewBox="0 0 375 374.999991" height="500" preserveAspectRatio="xMidYMid meet" version="1.0"><defs><g/><clipPath id="6a50d0f11e"><path d="M 37.5 37.5 L 337.5 37.5 L 337.5 337.5 L 37.5 337.5 Z M 37.5 37.5 " clip-rule="nonzero"/></clipPath></defs><g clip-path="url(#6a50d0f11e)"><path fill="#65e7de" d="M 187.5 37.5 C 104.65625 37.5 37.5 104.65625 37.5 187.5 C 37.5 270.34375 104.65625 337.5 187.5 337.5 C 270.34375 337.5 337.5 270.34375 337.5 187.5 C 337.5 104.65625 270.34375 37.5 187.5 37.5 " fill-opacity="1" fill-rule="nonzero"/></g><g fill="#000000" fill-opacity="1"><g transform="translate(89.439706, 256.356877)"><g><path d="M 125.777344 -159.453125 C 97.828125 -159.683594 72.394531 -151.207031 57.273438 -136.316406 C 41.695312 -120.964844 37.113281 -93.472656 58.191406 -79.726562 C 64.378906 -76.976562 73.769531 -83.851562 73.769531 -89.808594 C 57.960938 -119.589844 88.433594 -143.1875 124.632812 -142.730469 C 150.0625 -142.273438 163.347656 -131.273438 158.996094 -113.632812 C 154.644531 -96.453125 135.855469 -88.203125 114.550781 -88.433594 C 118.675781 -101.722656 123.027344 -118.675781 131.734375 -124.632812 C 133.335938 -128.296875 123.714844 -133.335938 116.613281 -130.816406 C 93.246094 -122.109375 89.121094 -73.082031 76.0625 -39.175781 C 51.777344 -54.296875 19.703125 -48.570312 18.558594 -22.453125 C 17.871094 -5.269531 34.59375 2.289062 52.921875 2.0625 C 66.898438 1.605469 78.582031 -3.664062 86.371094 -13.976562 C 99.199219 -4.351562 112.71875 1.832031 129.671875 2.0625 C 155.558594 2.0625 174.574219 -10.996094 179.386719 -36.65625 C 183.738281 -58.421875 168.847656 -79.269531 146.855469 -82.476562 C 162.433594 -83.394531 180.761719 -94.390625 184.199219 -112.488281 C 189.464844 -140.210938 162.203125 -159.226562 125.777344 -159.453125 Z M 110.199219 -75.144531 C 119.132812 -75.832031 126.003906 -75.144531 133.335938 -73.3125 C 147.3125 -69.875 158.078125 -59.335938 155.332031 -41.695312 C 150.0625 -8.019531 116.613281 -8.476562 94.390625 -27.261719 C 100.804688 -41.925781 105.617188 -60.484375 110.199219 -75.144531 Z M 55.214844 -32.761719 C 60.023438 -32.074219 65.753906 -29.097656 70.335938 -26.347656 C 65.753906 -18.785156 60.023438 -15.121094 54.527344 -14.433594 C 34.136719 -12.140625 36.886719 -35.050781 55.214844 -32.761719 Z M 55.214844 -32.761719 "/></g></g></g><g fill="#000000" fill-opacity="1"><g transform="translate(77.366491, 85.509359)"><g><path d="M 1.566406 -11.242188 C 2.324219 -12.507812 2.5 -13.921875 1.136719 -15.183594 C -0.113281 -16.34375 -1.875 -16.507812 -3.707031 -14.535156 L -8.492188 -9.378906 L 0.746094 -0.804688 L 5.441406 -5.863281 C 7.273438 -7.835938 7.253906 -9.738281 5.699219 -11.183594 C 4.226562 -12.550781 2.816406 -12.230469 1.566406 -11.242188 Z M -2.691406 -12.425781 C -1.878906 -13.300781 -1.207031 -13.246094 -0.496094 -12.589844 C 0.171875 -11.96875 0.304688 -11.222656 -0.546875 -10.308594 L -2.722656 -7.960938 L -4.933594 -10.007812 Z M 3.390625 -6.886719 L 1.097656 -4.414062 L -1.308594 -6.644531 L 0.871094 -8.992188 C 1.8125 -10.007812 2.632812 -9.941406 3.371094 -9.257812 C 4.050781 -8.628906 4.269531 -7.832031 3.390625 -6.886719 Z M 3.390625 -6.886719 "/></g></g></g><g fill="#000000" fill-opacity="1"><g transform="translate(96.736596, 66.675364)"><g><path d="M 1.820312 -4.234375 L -4.371094 -12.480469 L -6.6875 -10.738281 L 0.878906 -0.660156 L 7.914062 -5.941406 L 6.535156 -7.773438 Z M 1.820312 -4.234375 "/></g></g></g><g fill="#000000" fill-opacity="1"><g transform="translate(116.983773, 52.939443)"><g><path d="M 2.515625 -3.84375 L 1.132812 -6.582031 L 6.882812 -9.492188 L 5.917969 -11.402344 L 0.164062 -8.496094 L -1.109375 -11.015625 L 5.152344 -14.179688 L 4.125 -16.207031 L -4.707031 -11.746094 L 0.980469 -0.496094 L 9.863281 -4.984375 L 8.828125 -7.03125 Z M 2.515625 -3.84375 "/></g></g></g><g fill="#000000" fill-opacity="1"><g transform="translate(140.88092, 42.284414)"><g><path d="M -0.453125 -4.191406 C 0.28125 -2.015625 2.253906 -0.324219 6.238281 -1.488281 C 10.023438 -2.589844 11.046875 -4.570312 10.351562 -6.953125 C 9.734375 -9.0625 8.15625 -9.867188 5.621094 -9.421875 L 3 -8.992188 C 1.96875 -8.808594 1.398438 -9.214844 1.191406 -9.925781 C 0.914062 -10.871094 1.519531 -11.699219 2.992188 -12.128906 C 4.59375 -12.597656 5.609375 -12.101562 6.082031 -11.015625 L 8.792969 -11.808594 C 8.023438 -13.914062 6.019531 -15.222656 2.398438 -14.167969 C -1.003906 -13.171875 -2.183594 -11.132812 -1.546875 -8.949219 C -0.960938 -6.945312 0.585938 -6.113281 2.804688 -6.484375 L 5.582031 -6.921875 C 6.695312 -7.089844 7.382812 -6.777344 7.648438 -5.867188 C 7.929688 -4.902344 7.515625 -4.089844 5.675781 -3.554688 C 3.765625 -2.996094 2.6875 -3.707031 2.238281 -4.976562 Z M -0.453125 -4.191406 "/></g></g></g><g fill="#000000" fill-opacity="1"><g transform="translate(166.959122, 36.042774)"><g><path d="M 0.328125 -4.203125 C 0.648438 -1.929688 2.277344 0.101562 6.40625 -0.304688 C 10.332031 -0.691406 11.703125 -2.445312 11.457031 -4.914062 C 11.242188 -7.105469 9.84375 -8.183594 7.269531 -8.21875 L 4.613281 -8.28125 C 3.566406 -8.292969 3.078125 -8.796875 3.007812 -9.53125 C 2.910156 -10.511719 3.660156 -11.214844 5.1875 -11.367188 C 6.847656 -11.527344 7.75 -10.855469 8.019531 -9.699219 L 10.828125 -9.976562 C 10.457031 -12.1875 8.734375 -13.847656 4.980469 -13.476562 C 1.453125 -13.132812 -0.0859375 -11.34375 0.136719 -9.078125 C 0.339844 -7.003906 1.707031 -5.898438 3.957031 -5.855469 L 6.765625 -5.769531 C 7.894531 -5.726562 8.507812 -5.292969 8.601562 -4.347656 C 8.699219 -3.347656 8.140625 -2.628906 6.234375 -2.441406 C 4.253906 -2.246094 3.328125 -3.144531 3.121094 -4.476562 Z M 0.328125 -4.203125 "/></g></g></g><g fill="#000000" fill-opacity="1"><g transform="translate(193.789546, 34.795388)"><g><path d="M 9.425781 -9.621094 L 9.605469 -11.886719 L 2.085938 -12.480469 L 1.90625 -10.210938 L 4.230469 -10.027344 L 3.601562 -2.015625 L 1.277344 -2.199219 L 1.097656 0.0859375 L 8.617188 0.679688 L 8.796875 -1.609375 L 6.472656 -1.792969 L 7.101562 -9.804688 Z M 9.425781 -9.621094 "/></g></g></g><g fill="#000000" fill-opacity="1"><g transform="translate(217.535817, 37.746578)"><g><path d="M 13.433594 -9.460938 L 10.710938 0.738281 C 10.675781 0.0625 10.601562 -0.625 10.519531 -1.195312 L 8.925781 -10.664062 L 4.3125 -11.894531 L 1.0625 0.285156 L 3.734375 0.996094 L 6.453125 -9.183594 C 6.46875 -8.515625 6.542969 -7.828125 6.652344 -7.132812 L 8.242188 2.199219 L 12.855469 3.429688 L 16.105469 -8.746094 Z M 13.433594 -9.460938 "/></g></g></g><g fill="#000000" fill-opacity="1"><g transform="translate(244.674392, 46.415359)"><g><path d="M 6.003906 3.339844 C 8.398438 4.527344 10.125 3.988281 11.25 2.875 L 10.171875 5.046875 L 12.378906 6.140625 L 15.359375 0.132812 L 8.875 -3.085938 L 8.039062 -1.40625 L 12.0625 0.589844 C 11.160156 1.898438 9.816406 2.691406 7.574219 1.578125 C 5.300781 0.449219 4.996094 -1.371094 6.261719 -3.917969 C 7.59375 -6.601562 9.308594 -7.292969 11.570312 -6.171875 C 13.453125 -5.238281 13.972656 -3.984375 13.488281 -2.617188 L 16.101562 -1.320312 C 17.085938 -3.816406 16.359375 -6.3125 12.589844 -8.183594 C 8.328125 -10.300781 5.203125 -8.570312 3.570312 -5.273438 C 1.945312 -1.996094 2.285156 1.492188 6.003906 3.339844 Z M 6.003906 3.339844 "/></g></g></g><g fill="#000000" fill-opacity="1"><g transform="translate(270.091115, 60.838315)"><g/></g></g><g fill="#000000" fill-opacity="1"><g transform="translate(285.077739, 72.56267)"><g><path d="M 20.75 3.410156 L 17.375 -0.101562 L 8.285156 4.523438 L 13.28125 -4.367188 L 9.851562 -7.9375 L 0.761719 0.792969 L 2.742188 2.859375 L 10.507812 -4.597656 L 5.054688 5.265625 L 7.363281 7.671875 L 17.386719 2.644531 L 9.664062 10.0625 L 11.65625 12.140625 Z M 20.75 3.410156 "/></g></g></g></svg>