<svg xmlns="http://www.w3.org/2000/svg" xmlns:xlink="http://www.w3.org/1999/xlink" width="500" zoomAndPan="magnify" viewBox="0 0 375 374.999991" height="500" preserveAspectRatio="xMidYMid meet" version="1.0"><defs><g/><clipPath id="0a8ad7538a"><path d="M 87.324219 93.683594 L 287.574219 93.683594 L 287.574219 293.933594 L 87.324219 293.933594 Z M 87.324219 93.683594 " clip-rule="nonzero"/></clipPath></defs><g clip-path="url(#0a8ad7538a)"><path fill="#65e7de" d="M 187.449219 93.683594 C 132.152344 93.683594 87.324219 138.511719 87.324219 193.808594 C 87.324219 249.105469 132.152344 293.933594 187.449219 293.933594 C 242.75 293.933594 287.574219 249.105469 287.574219 193.808594 C 287.574219 138.511719 242.75 93.683594 187.449219 93.683594 " fill-opacity="1" fill-rule="nonzero"/></g><g fill="#ffffff" fill-opacity="1"><g transform="translate(122.192501, 235.482333)"><g><path d="M 76.035156 -96.390625 C 59.136719 -96.53125 43.765625 -91.40625 34.625 -82.40625 C 25.207031 -73.125 22.4375 -56.507812 35.175781 -48.195312 C 38.917969 -46.535156 44.59375 -50.6875 44.59375 -54.289062 C 35.039062 -72.292969 53.460938 -86.558594 75.339844 -86.28125 C 90.714844 -86.003906 98.746094 -79.359375 96.117188 -68.695312 C 93.484375 -58.304688 82.128906 -53.320312 69.246094 -53.460938 C 71.742188 -61.492188 74.371094 -71.742188 79.632812 -75.339844 C 80.605469 -77.558594 74.789062 -80.605469 70.492188 -79.082031 C 56.367188 -73.816406 53.875 -44.179688 45.980469 -23.683594 C 31.300781 -32.824219 11.910156 -29.359375 11.21875 -13.574219 C 10.800781 -3.183594 20.914062 1.386719 31.992188 1.246094 C 40.441406 0.96875 47.503906 -2.214844 52.210938 -8.449219 C 59.96875 -2.632812 68.140625 1.109375 78.386719 1.246094 C 94.039062 1.246094 105.53125 -6.648438 108.441406 -22.160156 C 111.074219 -35.316406 102.070312 -47.917969 88.773438 -49.859375 C 98.191406 -50.414062 109.273438 -57.058594 111.351562 -68 C 114.535156 -84.757812 98.054688 -96.253906 76.035156 -96.390625 Z M 66.617188 -45.425781 C 72.015625 -45.84375 76.171875 -45.425781 80.605469 -44.320312 C 89.050781 -42.242188 95.5625 -35.871094 93.898438 -25.207031 C 90.714844 -4.847656 70.492188 -5.125 57.058594 -16.480469 C 60.9375 -25.34375 63.847656 -36.5625 66.617188 -45.425781 Z M 33.378906 -19.804688 C 36.285156 -19.390625 39.75 -17.589844 42.519531 -15.925781 C 39.75 -11.355469 36.285156 -9.140625 32.960938 -8.726562 C 20.636719 -7.339844 22.296875 -21.191406 33.378906 -19.804688 Z M 33.378906 -19.804688 "/></g></g></g><g fill="#ffffff" fill-opacity="1"><g transform="translate(103.381353, 122.564006)"><g><path d="M 1.195312 -8.574219 C 1.769531 -9.535156 1.90625 -10.613281 0.867188 -11.578125 C -0.0859375 -12.464844 -1.429688 -12.585938 -2.828125 -11.082031 L -6.472656 -7.152344 L 0.570312 -0.613281 L 4.148438 -4.46875 C 5.542969 -5.976562 5.53125 -7.425781 4.34375 -8.527344 C 3.222656 -9.570312 2.148438 -9.324219 1.195312 -8.574219 Z M -2.050781 -9.476562 C -1.433594 -10.140625 -0.917969 -10.101562 -0.378906 -9.597656 C 0.128906 -9.125 0.234375 -8.558594 -0.414062 -7.859375 L -2.078125 -6.070312 L -3.761719 -7.632812 Z M 2.585938 -5.25 L 0.835938 -3.363281 L -0.996094 -5.066406 L 0.664062 -6.855469 C 1.382812 -7.628906 2.007812 -7.582031 2.570312 -7.058594 C 3.089844 -6.578125 3.253906 -5.972656 2.585938 -5.25 Z M 2.585938 -5.25 "/></g></g></g><g fill="#ffffff" fill-opacity="1"><g transform="translate(118.150825, 108.20331)"><g><path d="M 1.390625 -3.230469 L -3.332031 -9.515625 L -5.101562 -8.1875 L 0.671875 -0.503906 L 6.03125 -4.53125 L 4.984375 -5.929688 Z M 1.390625 -3.230469 "/></g></g></g><g fill="#ffffff" fill-opacity="1"><g transform="translate(133.589068, 97.729827)"><g><path d="M 1.917969 -2.929688 L 0.863281 -5.019531 L 5.25 -7.238281 L 4.511719 -8.695312 L 0.125 -6.476562 L -0.84375 -8.398438 L 3.925781 -10.8125 L 3.144531 -12.359375 L -3.589844 -8.957031 L 0.75 -0.378906 L 7.519531 -3.800781 L 6.730469 -5.363281 Z M 1.917969 -2.929688 "/></g></g></g><g fill="#ffffff" fill-opacity="1"><g transform="translate(151.810354, 89.605493)"><g><path d="M -0.347656 -3.195312 C 0.214844 -1.539062 1.71875 -0.246094 4.757812 -1.132812 C 7.644531 -1.976562 8.421875 -3.484375 7.890625 -5.300781 C 7.421875 -6.910156 6.21875 -7.523438 4.285156 -7.183594 L 2.289062 -6.855469 C 1.5 -6.71875 1.066406 -7.027344 0.90625 -7.566406 C 0.695312 -8.289062 1.160156 -8.921875 2.28125 -9.25 C 3.503906 -9.605469 4.277344 -9.226562 4.636719 -8.402344 L 6.707031 -9.003906 C 6.117188 -10.609375 4.589844 -11.609375 1.828125 -10.800781 C -0.765625 -10.042969 -1.664062 -8.488281 -1.179688 -6.824219 C -0.734375 -5.296875 0.445312 -4.660156 2.140625 -4.945312 L 4.253906 -5.277344 C 5.105469 -5.40625 5.628906 -5.167969 5.832031 -4.472656 C 6.046875 -3.738281 5.730469 -3.117188 4.328125 -2.710938 C 2.871094 -2.285156 2.050781 -2.828125 1.707031 -3.796875 Z M -0.347656 -3.195312 "/></g></g></g><g fill="#ffffff" fill-opacity="1"><g transform="translate(171.694665, 84.84631)"><g><path d="M 0.25 -3.203125 C 0.496094 -1.472656 1.734375 0.078125 4.886719 -0.234375 C 7.878906 -0.527344 8.921875 -1.863281 8.738281 -3.75 C 8.574219 -5.417969 7.503906 -6.242188 5.542969 -6.265625 L 3.519531 -6.3125 C 2.71875 -6.324219 2.347656 -6.707031 2.292969 -7.269531 C 2.21875 -8.015625 2.789062 -8.550781 3.957031 -8.667969 C 5.222656 -8.789062 5.910156 -8.277344 6.113281 -7.398438 L 8.257812 -7.605469 C 7.976562 -9.292969 6.660156 -10.558594 3.796875 -10.277344 C 1.109375 -10.011719 -0.0664062 -8.648438 0.105469 -6.921875 C 0.257812 -5.339844 1.300781 -4.5 3.019531 -4.464844 L 5.160156 -4.398438 C 6.019531 -4.367188 6.488281 -4.035156 6.558594 -3.316406 C 6.632812 -2.554688 6.207031 -2.003906 4.753906 -1.859375 C 3.246094 -1.710938 2.539062 -2.398438 2.378906 -3.414062 Z M 0.25 -3.203125 "/></g></g></g><g fill="#ffffff" fill-opacity="1"><g transform="translate(192.152579, 83.895203)"><g><path d="M 7.1875 -7.335938 L 7.324219 -9.0625 L 1.589844 -9.515625 L 1.453125 -7.785156 L 3.226562 -7.648438 L 2.746094 -1.539062 L 0.972656 -1.675781 L 0.835938 0.0664062 L 6.570312 0.515625 L 6.707031 -1.226562 L 4.933594 -1.367188 L 5.414062 -7.476562 Z M 7.1875 -7.335938 "/></g></g></g><g fill="#ffffff" fill-opacity="1"><g transform="translate(210.258805, 86.145441)"><g><path d="M 10.242188 -7.214844 L 8.167969 0.5625 C 8.140625 0.046875 8.085938 -0.476562 8.019531 -0.910156 L 6.808594 -8.132812 L 3.289062 -9.070312 L 0.808594 0.214844 L 2.847656 0.761719 L 4.921875 -7.003906 C 4.933594 -6.492188 4.988281 -5.96875 5.070312 -5.4375 L 6.285156 1.675781 L 9.800781 2.617188 L 12.28125 -6.671875 Z M 10.242188 -7.214844 "/></g></g></g><g fill="#ffffff" fill-opacity="1"><g transform="translate(230.951661, 92.755286)"><g><path d="M 4.578125 2.546875 C 6.402344 3.453125 7.71875 3.039062 8.578125 2.191406 L 7.753906 3.847656 L 9.4375 4.683594 L 11.710938 0.101562 L 6.765625 -2.355469 L 6.128906 -1.074219 L 9.199219 0.449219 C 8.511719 1.449219 7.484375 2.050781 5.777344 1.203125 C 4.039062 0.34375 3.808594 -1.046875 4.773438 -2.988281 C 5.789062 -5.035156 7.097656 -5.5625 8.820312 -4.707031 C 10.257812 -3.992188 10.65625 -3.039062 10.285156 -1.996094 L 12.277344 -1.007812 C 13.027344 -2.910156 12.472656 -4.816406 9.597656 -6.242188 C 6.347656 -7.851562 3.96875 -6.535156 2.722656 -4.023438 C 1.480469 -1.523438 1.742188 1.140625 4.578125 2.546875 Z M 4.578125 2.546875 "/></g></g></g><g fill="#ffffff" fill-opacity="1"><g transform="translate(250.331629, 103.752615)"><g/></g></g><g fill="#ffffff" fill-opacity="1"><g transform="translate(261.758745, 112.692304)"><g><path d="M 15.820312 2.601562 L 13.25 -0.078125 L 6.320312 3.449219 L 10.125 -3.332031 L 7.511719 -6.050781 L 0.582031 0.605469 L 2.09375 2.179688 L 8.011719 -3.507812 L 3.855469 4.011719 L 5.617188 5.847656 L 13.257812 2.015625 L 7.367188 7.671875 L 8.890625 9.257812 Z M 15.820312 2.601562 "/></g></g></g></svg>